<?xml version="1.0" encoding="utf-8"?>
<!-- Generator: Adobe Illustrator 23.0.1, SVG Export Plug-In . SVG Version: 6.00 Build 0)  -->
<svg version="1.1" id="레이어_1" xmlns="http://www.w3.org/2000/svg" xmlns:xlink="http://www.w3.org/1999/xlink" x="0px"
	 y="0px" viewBox="0 0 932.46 127.43" style="enable-background:new 0 0 932.46 127.43;" xml:space="preserve">
<style type="text/css">
	.st0{fill:#00416B;}
	.st1{fill:#EE7623;}
</style>
<g>
	<g>
		<path class="st0" d="M0,67.46c0,31.49,27.13,56.99,60.6,56.99c31.61,0,57.49-22.8,60.26-51.87H61.24v-1.35v-6.88v-1.38h59.69
			c-2.44-29.34-28.5-52.45-60.33-52.45C27.13,10.52,0,35.98,0,67.46"/>
		<polygon class="st0" points="345.36,121.96 318.05,72.58 252.12,72.58 224.24,121.9 		"/>
		<polygon class="st0" points="285.44,13.64 257.55,62.96 312.76,62.96 		"/>
		<rect x="177.47" y="72.58" class="st0" width="46.73" height="49.38"/>
		<rect x="121.02" y="72.58" class="st0" width="46.83" height="49.38"/>
		<rect x="177.47" y="13.6" class="st1" width="46.73" height="49.36"/>
		<rect x="121.02" y="13.6" class="st1" width="46.83" height="49.36"/>
		<polygon class="st0" points="224.24,62.96 224.24,72.58 252.12,72.58 257.54,62.96 		"/>
	</g>
	<g>
		<g>
			<g>
				<path class="st0" d="M515.31,34.74c-1.54,0.78-4.96,1.61-9.28,1.61c-11.41,0-18.35-7.05-18.35-17.76C487.68,7,495.92,0,506.88,0
					c4.32,0,7.41,0.89,8.75,1.57v6.41c-1.7-0.73-5.91-2.26-8.91-2.26c-7.3,0-11.63,4.01-11.63,12.48c0,7.73,4.09,12.46,11.99,12.46
					c2.66,0,6.52-0.92,8.22-1.69V34.74z"/>
				<path class="st0" d="M527.47,0.58v14.1h15.19V0.58h7.13v35.2h-7.13V20.82h-15.19v14.95h-7.12V0.58H527.47z"/>
				<path class="st0" d="M578.6,35.78h7.05l-11.69-35.2h-8.37l-11.53,35.2h7.35l2.52-8.69h11.82L578.6,35.78z M565.74,20.82
					l3.74-12.89l4.23,12.89H565.74z"/>
			</g>
		</g>
		<g>
			<path class="st0" d="M633.35,0.54h7.01v35.24h-7.01v-2.56h-32.79v-4.03h32.79V0.54z M625.11,3.65c2.23,1.98,3.34,4.44,3.34,7.4
				s-1.11,5.42-3.34,7.4c-2.45,2.22-5.81,3.33-10.1,3.33c-4.32,0-7.71-1.11-10.15-3.33c-2.19-1.98-3.29-4.44-3.29-7.4
				c0-2.98,1.1-5.44,3.29-7.4c2.45-2.2,5.83-3.3,10.15-3.3C619.29,0.36,622.66,1.45,625.11,3.65z M610.19,6.32
				c-0.98,1.22-1.48,2.8-1.48,4.73c0,1.93,0.49,3.5,1.48,4.72c1.14,1.39,2.77,2.09,4.86,2.09c2.07,0,3.67-0.7,4.81-2.09
				c1.02-1.25,1.52-2.82,1.52-4.72s-0.51-3.48-1.52-4.73c-1.18-1.39-2.78-2.09-4.81-2.09C612.95,4.24,611.33,4.93,610.19,6.32z"/>
			<path class="st0" d="M677.2,0.54h7.05v13.19h4.81v4.17h-4.81v17.87h-7.05v-2.56h-32.03v-4.03h5.72V12.74h7.05v16.45h19.26V0.54z
				 M671.01,1.27v13.26c0,2.93-0.18,5.5-0.53,7.69c-0.32,2.2-0.81,4.21-1.48,6.04l-6.72-1.1c0.57-1.61,1-3.33,1.29-5.17
				c0.29-1.95,0.43-4.25,0.43-6.89V5.3h-17.21V1.27H671.01z"/>
			<path class="st0" d="M703.24,2.63V0.36h7.05v2.27h9.72v3.74h-7.24c3.02,0.61,5.15,1.66,6.38,3.15c1.14,1.37,1.43,2.99,0.86,4.87
				c-0.64,1.64-2.05,2.99-4.24,4.07c-2.48,1.22-5.53,1.83-9.15,1.83c-3.65,0-6.72-0.62-9.2-1.87c-2.16-1.1-3.54-2.44-4.15-4.03
				c-0.6-1.88-0.35-3.5,0.76-4.87c1.24-1.49,3.37-2.54,6.39-3.15h-7.2V2.63H703.24z M731.98,22.88v12.86h-7.05v-8.9h-28.45v-3.96
				H731.98z M701.72,9.91c-1.05,0.71-1.57,1.59-1.57,2.64c0,1,0.53,1.89,1.57,2.67c1.24,0.88,2.88,1.32,4.91,1.32
				c2.03,0,3.69-0.44,4.96-1.32c1.11-0.78,1.67-1.67,1.67-2.67c0-1.05-0.56-1.93-1.67-2.64c-1.24-0.81-2.89-1.21-4.96-1.21
				C704.56,8.71,702.93,9.11,701.72,9.91z M731.98,0.54v8.31h4.81v4.03h-4.81v7.66h-7.05v-20H731.98z"/>
			<path class="st0" d="M793.63,2.63V0.36h7.05v2.27h9.72v3.74h-7.24c3.02,0.61,5.15,1.66,6.39,3.15c1.14,1.37,1.43,2.99,0.86,4.87
				c-0.64,1.64-2.05,2.99-4.24,4.07c-2.48,1.22-5.53,1.83-9.15,1.83c-3.65,0-6.72-0.62-9.2-1.87c-2.16-1.1-3.54-2.44-4.15-4.03
				c-0.6-1.88-0.35-3.5,0.76-4.87c1.24-1.49,3.37-2.54,6.39-3.15h-7.2V2.63H793.63z M822.37,22.88v12.86h-7.05v-8.9h-28.45v-3.96
				H822.37z M792.11,9.91c-1.05,0.71-1.57,1.59-1.57,2.64c0,1,0.53,1.89,1.57,2.67c1.24,0.88,2.88,1.32,4.91,1.32
				c2.03,0,3.69-0.44,4.96-1.32c1.11-0.78,1.67-1.67,1.67-2.67c0-1.05-0.56-1.93-1.67-2.64c-1.24-0.81-2.89-1.21-4.96-1.21
				S793.31,9.11,792.11,9.91z M822.37,0.54v8.31h4.82v4.03h-4.82v7.66h-7.05v-20H822.37z"/>
			<path class="st0" d="M870.44,33.25h-40.8v-3.88h5.19v-15.9h7.05v15.9h5.53v-15.9h7.05v15.9h15.97V33.25z M868.34,1.27v13.41
				c0,2.66-0.22,5.2-0.67,7.62c-0.45,2.47-1.1,4.8-1.96,7h-6.82c0.76-1.93,1.35-3.91,1.77-5.93c0.41-2.15,0.62-4.43,0.62-6.85V5.59
				h-29.55V1.27H868.34z"/>
			<path class="st0" d="M754.75,5.14h-8.14v22.65h12.45V0.54h7.01v14.02h5.34V0.54h7.02v35.24h-7.02V18.59h-5.34v17.14h-7.01v-4.08
				h-13.44c-2.1,0-3.63-0.39-4.64-1.17c-0.93-0.72-1.39-1.79-1.39-3.21V1.27h15.16V5.14"/>
		</g>
	</g>
	<g>
		<g>
			<rect x="651.78" y="51.37" class="st0" width="33.6" height="9.35"/>
			<polygon class="st0" points="722.85,82.87 722.85,65.44 722.85,56.56 722.85,51.37 708.71,51.37 708.71,126.15 722.85,126.15 
				722.85,93.08 736.89,93.08 736.89,82.87 			"/>
			<path class="st0" d="M701.08,65.73H636.2V75.8h24.21c0,5.81-2.91,11.7-8.73,17.67c-5.97,6.18-11.65,10.34-19.9,12.49l11.72,8.72
				c0,0,19.15-9.1,24.87-21.83c1.84,4.19,4.75,8.17,8.73,11.94c3.91,3.67,8.29,6.63,13.15,8.88l10.72-8.56
				c-6.78-2.15-12.53-6.26-17.24-12.33c-4.42-5.71-6.63-11.36-6.63-16.97h23.98V65.73z"/>
		</g>
		<path class="st0" d="M476.6,56.89c4.86,3.37,7.29,7.56,7.29,12.56c0,5-2.43,9.17-7.29,12.48c-5.29,3.73-12.54,5.59-21.77,5.59
			c-9.3,0-16.63-1.86-21.98-5.59c-4.79-3.32-7.19-7.48-7.19-12.48c0-5,2.39-9.19,7.19-12.56c5.35-3.68,12.68-5.52,21.98-5.52
			C464.06,51.37,471.31,53.21,476.6,56.89z M511.48,91.2v20.83H448.7v4.14h63.52v8.5h-79.16v-21.06h62.78v-4.06h-62.78V91.2H511.48z
			 M444.68,62.64c-2.18,1.79-3.28,4.06-3.28,6.82c0,2.71,1.09,4.95,3.28,6.74c2.39,1.94,5.78,2.91,10.15,2.91
			c4.3,0,7.65-0.97,10.04-2.91c2.25-1.79,3.38-4.03,3.38-6.74c0-2.76-1.13-5.03-3.38-6.82c-2.39-1.94-5.74-2.91-10.04-2.91
			C450.46,59.73,447.08,60.69,444.68,62.64z M511.48,51.76v35.38h-15.64V51.76H511.48z"/>
		<path class="st0" d="M572.8,77.11c4.23,4.75,10.32,8.42,18.29,11.03l-7.5,6.43c-6.13-2.3-11.66-5.03-16.6-8.2
			c-5.07-3.27-8.56-6.38-10.46-9.34c-2.19,2.96-5.81,6.08-10.89,9.34c-5,3.17-10.39,5.85-16.17,8.04l-6.45-6.2
			c7.33-2.91,13.04-6.61,17.12-11.1c5.71-6.38,8.56-14.63,8.56-24.74h15.75C564.45,62.64,567.24,70.88,572.8,77.11z M550.82,116.4
			h61.94v8.27h-77.58v-24.13h15.64V116.4z M612.12,51.76V74.2h10.78v8.73h-10.78v22.29h-15.64V51.76H612.12z"/>
		<path class="st0" d="M763.33,52.37v9.73h21.88v-9.73h15.54v6.13h14.91v-6.74h15.64v41.82h-15.64v-8.73h-14.91v5.74h-38.79h-14.27
			V52.37H763.33z M822.63,100.93c6.76,2.96,10.15,6.59,10.15,10.88c-0.07,4.24-3.48,7.81-10.25,10.72
			c-7.54,3.27-17.83,4.9-30.86,4.9c-12.97,0-23.22-1.64-30.76-4.9c-6.69-2.91-10.04-6.48-10.04-10.72c0-4.29,3.34-7.92,10.04-10.88
			c7.61-3.27,17.86-4.9,30.76-4.9C804.76,96.03,815.09,97.66,822.63,100.93z M763.33,70.22v12.26h21.88V70.22H763.33z M772.85,106.6
			c-4.09,1.38-6.13,3.09-6.13,5.13c0,1.99,2.04,3.68,6.13,5.06c4.58,1.58,10.85,2.37,18.81,2.37c8.1,0,14.48-0.79,19.13-2.37
			c4.15-1.38,6.23-3.06,6.23-5.06c0-2.04-2.08-3.75-6.23-5.13c-4.65-1.53-11.03-2.3-19.13-2.3
			C783.7,104.3,777.43,105.07,772.85,106.6z M815.65,76.8V66.7h-14.91V76.8H815.65z"/>
		<path class="st0" d="M916.4,84.31V51.76h15.64v57.37H916.4v-4.29h-17.65v-8.27h17.65V92.5h-33.51v12.33h-13.63v11.49h63.21v8.35
			h-78.85v-22.44h13.63V92.5h-23.68v-8.19H916.4z M899.17,56.13c5,2.8,7.5,6.38,7.5,10.72c0,4.24-2.5,7.79-7.5,10.65
			c-5.57,3.16-13.21,4.75-22.94,4.75c-9.65,0-17.27-1.58-22.83-4.75c-4.93-2.86-7.4-6.41-7.4-10.65c0-4.34,2.47-7.92,7.4-10.72
			c5.5-3.17,13.1-4.75,22.83-4.75C885.95,51.37,893.6,52.96,899.17,56.13z M865.13,61.72c-2.32,1.38-3.49,3.11-3.49,5.2
			c0,2,1.16,3.63,3.49,4.9c2.68,1.48,6.38,2.22,11.1,2.22c4.79,0,8.52-0.74,11.2-2.22c2.39-1.28,3.59-2.91,3.59-4.9
			c0-2.14-1.2-3.88-3.59-5.2c-2.68-1.43-6.41-2.15-11.2-2.15C871.51,59.57,867.81,60.29,865.13,61.72z"/>
	</g>
</g>
</svg>
